<svg width="38" height="39" viewBox="0 0 38 39" fill="none" xmlns="http://www.w3.org/2000/svg">
<g id="Frame">
<path id="Vector" d="M27.01 25.1074C27.7507 24.6016 28.6194 24.3158 29.5157 24.2832C30.4121 24.2505 31.2993 24.4723 32.0748 24.9228C32.8503 25.3733 33.4825 26.0343 33.8981 26.8291C34.3136 27.6239 34.4957 28.5201 34.4232 29.4141C32.5235 30.078 30.5057 30.3364 28.4999 30.1725C28.4938 28.378 27.977 26.6207 27.01 25.109C26.1517 23.7628 24.9677 22.6549 23.5676 21.8877C22.1675 21.1205 20.5965 20.7189 18.9999 20.72C17.4037 20.7192 15.833 21.1209 14.4332 21.8881C13.0334 22.6552 11.8496 23.763 10.9914 25.109M28.4984 30.1709L28.4999 30.22C28.4999 30.5762 28.4809 30.9277 28.4414 31.2745C25.5682 32.9229 22.3124 33.7878 18.9999 33.7825C15.5641 33.7825 12.3389 32.8705 9.55852 31.2745C9.51781 30.908 9.49825 30.5396 9.49994 30.1709M9.49994 30.1709C7.49485 30.3407 5.47812 30.0833 3.57985 29.4156C3.50757 28.5219 3.68973 27.626 4.10525 26.8315C4.52077 26.0369 5.15269 25.3762 5.92794 24.9258C6.70319 24.4753 7.59011 24.2534 8.48616 24.2858C9.3822 24.3183 10.2508 24.6036 10.9914 25.109M9.49994 30.1709C9.50562 28.3765 10.025 26.6208 10.9914 25.109M23.7499 11.22C23.7499 12.4798 23.2495 13.6879 22.3587 14.5787C21.4679 15.4695 20.2597 15.97 18.9999 15.97C17.7402 15.97 16.532 15.4695 15.6412 14.5787C14.7504 13.6879 14.2499 12.4798 14.2499 11.22C14.2499 9.96019 14.7504 8.75201 15.6412 7.86121C16.532 6.97042 17.7402 6.46997 18.9999 6.46997C20.2597 6.46997 21.4679 6.97042 22.3587 7.86121C23.2495 8.75201 23.7499 9.96019 23.7499 11.22ZM33.2499 15.97C33.2499 16.4378 33.1578 16.9011 32.9788 17.3333C32.7997 17.7655 32.5373 18.1582 32.2065 18.489C31.8757 18.8198 31.483 19.0823 31.0508 19.2613C30.6185 19.4403 30.1553 19.5325 29.6874 19.5325C29.2196 19.5325 28.7564 19.4403 28.3241 19.2613C27.8919 19.0823 27.4992 18.8198 27.1684 18.489C26.8376 18.1582 26.5751 17.7655 26.3961 17.3333C26.2171 16.9011 26.1249 16.4378 26.1249 15.97C26.1249 15.0251 26.5003 14.119 27.1684 13.4509C27.8365 12.7828 28.7426 12.4075 29.6874 12.4075C30.6323 12.4075 31.5384 12.7828 32.2065 13.4509C32.8746 14.119 33.2499 15.0251 33.2499 15.97ZM11.8749 15.97C11.8749 16.4378 11.7828 16.9011 11.6038 17.3333C11.4247 17.7655 11.1623 18.1582 10.8315 18.489C10.5007 18.8198 10.108 19.0823 9.67575 19.2613C9.24352 19.4403 8.78027 19.5325 8.31244 19.5325C7.8446 19.5325 7.38135 19.4403 6.94913 19.2613C6.5169 19.0823 6.12418 18.8198 5.79337 18.489C5.46256 18.1582 5.20015 17.7655 5.02112 17.3333C4.84208 16.9011 4.74994 16.4378 4.74994 15.97C4.74994 15.0251 5.12527 14.119 5.79337 13.4509C6.46147 12.7828 7.3676 12.4075 8.31244 12.4075C9.25727 12.4075 10.1634 12.7828 10.8315 13.4509C11.4996 14.119 11.8749 15.0251 11.8749 15.97Z" stroke="black" stroke-width="1.6904" stroke-linecap="round" stroke-linejoin="round"/>
</g>
</svg>
